PathFileType	4	(X/Y/Z)	C:\Users\WrightLab\Desktop\Jo\P1.2Trial3.trc
DataRate	CameraRate	NumFrames	NumMarkers	Units	OrigDataRate	OrigDataStartFrame	OrigNumFrames
100.00	100.00	       40	19	mm	100.00	83	       658
Frame#	Time	Headset_Front			Headset_Back			Headset_Left			Headset_Right			Left_Shoulder			Right_Shoulder			Sternum			C7			Left Elbow			Right Elbow			Left Wrist			Right Wrist			Left ASIS			Right ASIS			S2			Left Knee			Right Knee			Left Ankle			Right Ankle			
		X1	Y1	Z1	X2	Y2	Z2	X3	Y3	Z3	X4	Y4	Z4	X5	Y5	Z5	X6	Y6	Z6	X7	Y7	Z7	X8	Y8	Z8	X9	Y9	Z9	X10	Y10	Z10	X11	Y11	Z11	X12	Y12	Z12	X13	Y13	Z13	X14	Y14	Z14	X15	Y15	Z15	X16	Y16	Z16	X17	Y17	Z17	X18	Y18	Z18	X19	Y19	Z19	

83	0.820																															66.50388	720.31860	-1473.62939				-72.11737	854.63556	-1430.81384	-351.46402	841.12201	-1432.93811				-65.92228	400.67761	-1462.02917										
84	0.830																															66.29333	719.77747	-1472.27209				-72.20067	854.47644	-1428.75317	-351.30554	841.33832	-1432.09717				-65.68772	400.84604	-1461.18542										
85	0.840																															66.93044	719.51318	-1470.91956				-72.05415	853.78723	-1428.56750	-350.48856	840.47229	-1434.89636				-65.86846	400.28668	-1459.98340										
86	0.850																															67.02458	719.41132	-1470.85352				-72.02836	853.67786	-1428.37549	-349.96289	839.60712	-1435.70190				-65.84058	400.21323	-1459.87244										
87	0.860																															67.21347	719.47998	-1470.08057				-71.56992	852.71466	-1429.58240	-349.80859	839.72943	-1434.86523				-65.67595	400.34045	-1459.22559										
88	0.870																															67.40357	719.28625	-1469.80713				-71.52015	852.50977	-1429.21167	-349.48489	840.07642	-1433.12671				-65.55114	400.38248	-1458.79883										
89	0.880																															67.54803	719.20715	-1469.56287				-72.00585	852.42645	-1426.80066	-349.30890	840.23279	-1432.17529				-65.57316	401.00717	-1457.14905										
90	0.890																															67.84193	719.16010	-1468.85022				-71.95721	852.10663	-1426.42334	-349.20184	840.14722	-1431.56128				-65.34049	400.80270	-1457.06482										
91	0.900																															67.98766	719.15698	-1468.22937				-71.46194	850.95966	-1427.25232	-349.08713	840.13147	-1430.91736				-65.01310	400.69611	-1456.67578				-83.86746	43.07710	-1572.99597				
92	0.910																															68.38935	718.63147	-1467.71887				-71.41612	850.68872	-1426.89771	-348.92984	840.13910	-1430.03979				-64.35654	400.71808	-1456.72876				-83.86746	43.07710	-1572.99597				
93	0.920																															68.68510	718.48810	-1467.24390				-71.36710	850.56848	-1426.53760	-348.98846	839.30981	-1429.29248				-63.78773	400.46872	-1455.89832				-83.86746	43.07710	-1572.99597				
94	0.930																															68.56380	717.97321	-1465.38806				-71.19158	849.74139	-1426.68823	-348.55899	838.25775	-1430.06250				-63.58756	400.48923	-1455.24866				-83.86746	43.07710	-1572.99597				
95	0.940																															68.77441	717.82526	-1464.83850				-70.55627	848.73608	-1428.43933	-348.52142	838.12012	-1429.82544				-63.53151	400.44336	-1455.15442				-83.64322	43.01439	-1572.90332				
96	0.950																															69.06645	717.62939	-1464.51123				-70.61864	847.60962	-1426.58276	-348.53891	837.90637	-1429.88049				-63.18059	399.82782	-1453.68347				-83.52235	42.91725	-1572.98999				
97	0.960																															69.48035	716.96332	-1463.65723				-70.42897	847.87531	-1425.27881	-348.65674	836.68286	-1428.77795				-62.93767	399.65891	-1453.56250				-83.93069	42.08934	-1572.28015				
98	0.970	6.31550	1216.17834	-1547.84033																												69.62095	716.71417	-1463.69067				-70.47257	848.10101	-1421.67725	-348.67886	836.55762	-1428.87708				-62.65324	399.15042	-1452.73816				-83.95947	41.97822	-1572.54846				
99	0.980	7.19810	1216.17627	-1545.30811																												69.64765	715.64191	-1462.01123				-70.48615	847.89874	-1419.16956	-348.69241	836.38879	-1428.91968				-62.49981	399.32535	-1451.83752				-83.95947	41.97822	-1572.54846				
100	0.990	7.71884	1215.75330	-1541.93958																												69.96017	715.39056	-1461.83386				-70.20460	848.26410	-1417.23291	-348.72260	836.23950	-1429.05884				-62.44815	399.42081	-1451.36462				-83.76740	41.19220	-1571.99133				
101	1.000	8.64991	1216.07849	-1539.92615																												70.58382	715.00690	-1461.30457				-69.49899	847.55499	-1417.81958	-348.83017	835.23590	-1429.00928				-62.28498	399.22726	-1451.36792				-83.92581	41.09648	-1572.35754				
102	1.010	9.07464	1216.45288	-1538.31677																												70.78697	714.98431	-1460.56470				-69.65086	846.48761	-1415.85718	-349.39456	835.15570	-1427.09473				-62.24627	399.11890	-1451.20349				-84.06639	41.03582	-1572.63037				
103	1.020	9.48269	1216.87280	-1536.48608																												70.29556	714.59448	-1459.22400				-68.78482	845.35815	-1417.62524	-348.81137	833.87982	-1430.75610				-61.99171	399.01129	-1450.99573				-83.86301	40.86797	-1572.78564				
104	1.030	10.34323	1216.66553	-1533.23254																												70.53055	714.24268	-1459.20691				-68.92586	843.67566	-1416.44006	-348.91714	833.65387	-1431.30286				-61.18838	398.25058	-1450.30591				-84.03037	40.89504	-1572.89673				
105	1.040	10.71416	1217.06067	-1531.50635																												71.07929	713.60107	-1459.63062				-69.20886	843.14209	-1414.11243	-349.06662	833.33887	-1432.07605				-61.26210	397.70197	-1449.07495				-84.03037	40.89504	-1572.89673				
106	1.050	11.49016	1216.82861	-1528.34277																												71.08317	712.48541	-1458.07715				-68.12826	841.59778	-1415.67212	-349.24973	832.98499	-1433.02930				-61.23685	397.60208	-1448.92969				-84.03037	40.89504	-1572.89673				
107	1.060	11.81772	1215.63965	-1523.44019																												71.73939	711.58093	-1457.54260				-69.35136	842.69061	-1410.27551	-349.03699	831.50848	-1435.82886				-60.93329	397.16476	-1448.72009				-84.98427	40.07935	-1573.10657				
108	1.070	12.56162	1213.82300	-1517.13306																												71.44782	710.66431	-1456.22485				-68.97067	840.54370	-1412.42944	-349.91812	832.21167	-1433.34839				-60.92214	397.03424	-1448.54419				-85.08267	39.95897	-1573.46509				
109	1.080	12.57978	1214.11829	-1515.75000																												71.78162	710.04395	-1455.99609				-69.30989	838.64728	-1412.61438	-350.33374	830.95923	-1433.97290				-61.88095	396.23926	-1446.92261				-85.72498	38.65676	-1572.35254				
110	1.090	12.95624	1213.72717	-1513.20801																												71.64439	708.77972	-1455.05518				-70.27281	837.04913	-1410.62036	-350.92896	829.89728	-1437.08728				-61.84885	395.55389	-1447.08069				-85.72498	38.65676	-1572.35254				
111	1.100	12.88564	1212.43823	-1508.66284																												72.33434	707.33911	-1455.31750				-70.33344	835.72626	-1410.43225	-351.93195	828.52802	-1437.66772				-62.17698	394.11935	-1445.82959				-85.72498	38.65676	-1572.35254				
112	1.110	13.25025	1210.49695	-1502.85010																												71.51315	705.91394	-1452.67773				-70.52650	834.61853	-1408.76123	-352.98602	827.23273	-1438.54553				-62.21034	393.81540	-1445.76538				-85.72498	38.65676	-1572.35254	-357.14499	52.53104	-1519.71753	
113	1.120	12.86707	1210.69006	-1501.80237																												71.40604	704.86456	-1451.45984				-71.85183	832.87518	-1405.52161	-353.49005	826.33356	-1441.17822				-62.59023	392.75281	-1444.45911	-366.59244	402.25064	-1445.49768	-85.36745	38.31985	-1572.26575	-359.23346	53.91438	-1517.93494	
114	1.130	12.25779	1210.41760	-1499.83472																												71.35616	703.76123	-1450.06238				-72.25713	831.64136	-1408.22046	-355.15289	825.17145	-1441.23462				-62.86013	392.00351	-1443.54590	-366.93771	404.56421	-1442.06604	-85.36745	38.31985	-1572.26575	-361.18448	55.72741	-1518.76208	
115	1.140	12.55330	1208.94092	-1494.87024													76.97149	921.36682	-1548.71289													70.61607	702.36444	-1447.14465				-73.29129	829.47168	-1408.15723	-356.65945	824.03516	-1442.91943				-63.52258	391.79950	-1441.83533	-368.65607	405.59131	-1438.11414	-85.31660	38.18658	-1572.50049	-363.66846	59.25901	-1515.89478	
116	1.150	12.15494	1207.64868	-1490.27014													76.87250	920.63080	-1545.82581													70.73117	701.92926	-1446.49084				-74.08432	826.52771	-1409.06531	-359.04138	825.40002	-1438.54504				-63.54655	391.93130	-1441.03101	-370.94943	406.47934	-1434.02087	-85.36745	38.31985	-1572.26575	-365.59949	61.33830	-1513.90759	
117	1.160	10.86500	1207.61548	-1488.40625													76.04214	919.74426	-1539.07544													69.96171	700.68530	-1443.55151				-76.23909	825.05255	-1408.55188	-359.87183	824.29669	-1442.93567				-64.46021	391.51727	-1438.67712	-374.18756	407.88763	-1425.98474	-85.36745	38.31985	-1572.26575	-369.35245	64.30816	-1512.91589	
118	1.170	10.02684	1207.54895	-1486.06519													76.27824	919.68506	-1538.55249													69.81167	700.05756	-1441.48279				-78.50729	825.98651	-1404.89160	-361.52841	823.82123	-1444.88721				-64.68478	391.74319	-1437.69336	-376.88000	407.99216	-1421.38477	-85.72498	38.65676	-1572.35254	-373.47980	67.14112	-1508.89502	
119	1.180	8.95146	1207.96399	-1484.53760													76.51656	920.08368	-1536.90015													69.24918	700.30969	-1439.09717				-79.69634	825.76251	-1402.46582	-364.10007	824.38025	-1442.09436				-65.73546	391.26590	-1434.15588	-379.79343	409.81448	-1416.96265	-85.72498	38.65676	-1572.35254	-377.96719	70.48977	-1502.25378	
120	1.190	8.46942	1206.82166	-1479.23010													73.65774	918.27734	-1527.84912													69.05431	699.74255	-1437.52209				-80.17314	826.55481	-1401.39124	-365.84332	825.48041	-1440.58777				-66.43406	391.58685	-1431.46240	-382.93173	411.66153	-1412.74805	-85.40726	38.96112	-1571.37708	-383.90799	71.39589	-1498.55359	
121	1.200	7.77111	1206.60156	-1475.69299													72.74812	918.68707	-1525.97705													68.92599	699.89380	-1436.09131				-82.87784	827.11987	-1393.84094	-366.34912	824.78015	-1443.24219				-67.66626	391.50626	-1429.55017	-385.53610	413.13837	-1412.69800	-85.33205	39.65284	-1571.86658	-388.65527	71.82254	-1491.44055	
122	1.210	6.80934	1206.23352	-1471.73743													72.17188	919.59668	-1525.15955													67.83135	699.30316	-1431.75671				-84.24207	825.84534	-1391.37329	-366.63235	824.38123	-1444.72717				-69.38673	391.39301	-1425.76575	-388.79510	413.71475	-1409.44556	-85.30231	40.01738	-1571.05286	-394.72476	73.63282	-1483.84497	
